<svg id="Componente_87_17" data-name="Componente 87 – 17" xmlns="http://www.w3.org/2000/svg" width="15.458" height="15.458" viewBox="0 0 15.458 15.458">
  <path id="Trazado_525" data-name="Trazado 525" d="M194.5,301.779a1.84,1.84,0,0,1,1.969-1.27c2,.03,4.007.009,6.01.01a2.723,2.723,0,0,1,.377.012.594.594,0,0,1,.508.6.568.568,0,0,1-.532.534c-.125.013-.252.008-.378.008h-5.941c-.734,0-.885.152-.885.888q0,5.169,0,10.338c0,.731.149.877.893.878q4.619,0,9.239,0c.712,0,.834-.125.834-.842q0-2.438,0-4.877a1.408,1.408,0,0,1,.056-.509.577.577,0,0,1,1.118.1,1.854,1.854,0,0,1,.014.342c0,1.649-.022,3.3.009,4.945a1.844,1.844,0,0,1-1.268,1.971H195.737a1.9,1.9,0,0,1-1.237-1.237Z" transform="translate(-194.5 -299.443)" fill="#ee2825"/>
  <path id="Trazado_526" data-name="Trazado 526" d="M254.546,287.611a3.268,3.268,0,0,1-.895,1.318q-3.4,3.376-6.773,6.772a1.8,1.8,0,0,1-.75.456c-.914.294-1.824.6-2.733.912-.29.1-.575.189-.836-.056s-.187-.537-.089-.828q.485-1.448.965-2.9a1.357,1.357,0,0,1,.34-.546q3.535-3.529,7.063-7.065a2.855,2.855,0,0,1,1.1-.677h.962a2.291,2.291,0,0,1,1.649,1.649Zm-2.142-1.442a1.043,1.043,0,0,0-.811.4q-3.407,3.412-6.818,6.82a.8.8,0,0,0-.232.293c-.188.564-.373,1.129-.565,1.691-.083.243.021.254.211.19.433-.147.863-.306,1.3-.43a1.919,1.919,0,0,0,.852-.54q3.28-3.3,6.572-6.581a2.469,2.469,0,0,0,.3-.33.942.942,0,0,0,.078-1.008A.875.875,0,0,0,252.4,286.168Z" transform="translate(-239.088 -285)" fill="#ee2825"/>
</svg>
