<svg xmlns="http://www.w3.org/2000/svg" width="25.748" height="24.35" viewBox="0 0 25.748 24.35">
  <g id="Grupo_23205" data-name="Grupo 23205" transform="translate(1095.609 930.006)">
    <g id="Grupo_23201" data-name="Grupo 23201" transform="translate(-1095.459 -929.856)">
      <path id="Trazado_17406" data-name="Trazado 17406" d="M-1086.511-909.406q-4.059,0-8.119,0c-.766,0-.824-.061-.825-.842,0-.689-.008-1.379,0-2.068a1.587,1.587,0,0,1,1.593-1.606c.4-.011.807-.006,1.21,0,.293.006.491.141.48.458-.01.289-.2.409-.472.416-.353.009-.707-.007-1.059.015a.815.815,0,0,0-.862.86c-.025.5,0,1.008-.008,1.512a.318.318,0,0,0,.371.364c.118,0,.235,0,.353,0h15.432c.718,0,.718,0,.719-.725,0-.353.009-.707,0-1.059-.023-.653-.314-.937-.976-.959-.3-.01-.6,0-.908-.007-.284,0-.506-.106-.514-.426s.2-.448.487-.451c.47,0,.944-.026,1.411.014a1.581,1.581,0,0,1,1.387,1.648c.009,2.185,0,4.371,0,6.556q0,1.185,0,2.37c0,.342.02.748-.458.739-.437-.008-.428-.392-.428-.72,0-1.832-.013-3.665.009-5.5.005-.464-.14-.609-.6-.606C-1081.031-909.4-1083.771-909.406-1086.511-909.406Z" transform="translate(1095.459 915.538)" fill="#fff" stroke="#fff" stroke-width="0.3"/>
      <path id="Trazado_17407" data-name="Trazado 17407" d="M-1087.653-850.363c-2,0-4,0-6,0a1.613,1.613,0,0,1-1.779-1.778q0-4.413,0-8.826a2.053,2.053,0,0,1,.029-.451.384.384,0,0,1,.405-.31.378.378,0,0,1,.411.3,2.618,2.618,0,0,1,.036.551q0,4.211,0,8.422c0,.951.25,1.2,1.19,1.2q5.749,0,11.5,0h.4c.326,0,.644.044.631.463-.012.384-.317.422-.622.422Z" transform="translate(1095.438 868.605)" fill="#fff" stroke="#fff" stroke-width="0.3"/>
      <path id="Trazado_17408" data-name="Trazado 17408" d="M-1060.127-852.224q0,.555,0,1.109a.471.471,0,0,1-.521.538q-1.135,0-2.269,0c-.356,0-.514-.2-.514-.544q0-1.109,0-2.219c0-.383.2-.542.571-.54q1.084,0,2.168,0c.408,0,.574.207.567.6C-1060.132-852.93-1060.126-852.577-1060.127-852.224Zm-.884,0c0-.766,0-.766-.719-.767-.817,0-.817,0-.817.769s0,.767.769.767S-1061.011-851.46-1061.011-852.229Z" transform="translate(1066.664 861.549)" fill="#fff" stroke="#fff" stroke-width="0.3"/>
      <path id="Trazado_17409" data-name="Trazado 17409" d="M-1016.162-852.251c0,.37,0,.74,0,1.109.006.4-.192.58-.588.577-.706-.006-1.412-.008-2.118,0-.428.005-.609-.2-.6-.615.009-.706.006-1.412,0-2.118,0-.366.154-.574.537-.574.739,0,1.479,0,2.219,0a.486.486,0,0,1,.55.562C-1016.165-852.957-1016.162-852.6-1016.162-852.251Zm-2.42.017c0,.781,0,.781.7.783.833,0,.833,0,.833-.753,0-.782,0-.782-.753-.783C-1018.582-852.987-1018.582-852.987-1018.582-852.234Z" transform="translate(1027.14 861.54)" fill="#fff" stroke="#fff" stroke-width="0.3"/>
      <path id="Trazado_17410" data-name="Trazado 17410" d="M-973.815-850.565c-.37,0-.74,0-1.109,0a.454.454,0,0,1-.5-.5c0-.756,0-1.513,0-2.269a.47.47,0,0,1,.527-.53c.756,0,1.513,0,2.269,0a.452.452,0,0,1,.5.5c0,.756,0,1.513,0,2.269a.471.471,0,0,1-.528.531C-973.042-850.563-973.428-850.565-973.815-850.565Zm.015-2.419c-.746,0-.746,0-.746.739,0,.8,0,.8.79.8.746,0,.746,0,.746-.79C-973.011-852.984-973.011-852.984-973.8-852.984Z" transform="translate(987.544 861.537)" fill="#fff" stroke="#fff" stroke-width="0.3"/>
      <path id="Trazado_17411" data-name="Trazado 17411" d="M-1060.127-808.224q0,.555,0,1.109a.471.471,0,0,1-.521.537q-1.134,0-2.269,0c-.356,0-.514-.2-.513-.544q0-1.109,0-2.219c0-.383.2-.542.571-.54q1.084.005,2.168,0c.408,0,.574.208.566.6C-1060.132-808.93-1060.126-808.577-1060.127-808.224ZM-1061.8-809c-.745,0-.745,0-.746.739,0,.8,0,.8.79.8.746,0,.746,0,.746-.79C-1061.012-809-1061.012-809-1061.8-809Z" transform="translate(1066.664 821.99)" fill="#fff" stroke="#fff" stroke-width="0.3"/>
      <path id="Trazado_17412" data-name="Trazado 17412" d="M-1016.13-808.236q0,.555,0,1.109c0,.344-.158.543-.513.544q-1.135.006-2.269,0a.47.47,0,0,1-.521-.537q0-1.109,0-2.219c0-.379.193-.549.564-.547.723,0,1.445,0,2.168,0,.4,0,.581.2.574.591C-1016.134-808.942-1016.129-808.589-1016.13-808.236Zm-1.666.772c.781,0,.781,0,.781-.755,0-.781,0-.781-.755-.781-.781,0-.781,0-.781.755C-1018.55-807.464-1018.55-807.464-1017.8-807.464Z" transform="translate(1027.107 821.994)" fill="#fff" stroke="#fff" stroke-width="0.3"/>
      <path id="Trazado_17413" data-name="Trazado 17413" d="M-972.13-808.173q0,.529,0,1.059c0,.343-.156.544-.512.546q-1.135.006-2.269,0a.47.47,0,0,1-.522-.536q0-1.109,0-2.219c0-.344.156-.544.512-.545q1.135-.006,2.269,0a.47.47,0,0,1,.522.536Q-972.129-808.753-972.13-808.173Zm-.884-.046c0-.766,0-.766-.719-.767-.817,0-.817,0-.817.769s0,.767.769.767S-973.013-807.451-973.013-808.219Z" transform="translate(987.547 821.98)" fill="#fff" stroke="#fff" stroke-width="0.3"/>
      <path id="Trazado_17414" data-name="Trazado 17414" d="M-1057.033-927.814c0,.3.014.6,0,.9a1.188,1.188,0,0,1-1.255,1.163,1.175,1.175,0,0,1-1.227-1.137c-.026-.619-.028-1.24,0-1.859a1.175,1.175,0,0,1,1.249-1.113,1.185,1.185,0,0,1,1.23,1.136C-1057.018-928.418-1057.034-928.116-1057.033-927.814Zm-.9.034h0c0-.251.018-.5-.006-.753a.336.336,0,0,0-.357-.347.324.324,0,0,0-.319.331c-.017.5-.018,1,0,1.506a.319.319,0,0,0,.327.322c.229,0,.331-.161.349-.356C-1057.914-927.31-1057.931-927.546-1057.931-927.781Z" transform="translate(1063.163 929.855)" fill="#fff" stroke="#fff" stroke-width="0.3"/>
      <path id="Trazado_17415" data-name="Trazado 17415" d="M-969.028-927.81c0,.3.014.6,0,.9a1.188,1.188,0,0,1-1.258,1.159,1.176,1.176,0,0,1-1.224-1.141c-.025-.6-.024-1.207,0-1.809a1.18,1.18,0,0,1,1.257-1.159,1.185,1.185,0,0,1,1.226,1.14C-969.013-928.415-969.029-928.112-969.028-927.81Zm-1.591-.014c0,.251-.018.5.006.753a.337.337,0,0,0,.354.35.322.322,0,0,0,.321-.328c.019-.5.019-1,0-1.506a.32.32,0,0,0-.324-.324c-.23,0-.333.158-.352.353A7.024,7.024,0,0,0-970.619-927.824Z" transform="translate(984.039 929.855)" fill="#fff" stroke="#fff" stroke-width="0.3"/>
      <path id="Trazado_17416" data-name="Trazado 17416" d="M-1028.4-913h-2.219c-.306,0-.607-.038-.615-.426-.01-.423.309-.459.633-.459h4.438c.305,0,.607.038.615.426.009.422-.309.459-.633.459Z" transform="translate(1037.719 915.499)" fill="#fff" stroke="#fff" stroke-width="0.3"/>
    </g>
    <g id="Grupo_23202" data-name="Grupo 23202" transform="translate(-1081.24 -919.955)">
      <path id="Trazado_17417" data-name="Trazado 17417" d="M-943.367-829.415a1.676,1.676,0,0,1-.246,1.173c-.069.113-.142.224-.221.331q-2.881,3.916-5.761,7.831a1.424,1.424,0,0,1-.518.44q-1.859.942-3.714,1.894a1.424,1.424,0,0,1-.267.117.359.359,0,0,1-.479-.346,1.5,1.5,0,0,1,.033-.316c.234-1.37.473-2.739.7-4.109a1.305,1.305,0,0,1,.248-.576q2.934-3.975,5.861-7.956a1.8,1.8,0,0,1,2.673-.408c.329.24.658.48.984.724A1.731,1.731,0,0,1-943.367-829.415Zm-6.805,8.756c.08-.017.109-.075.145-.124q2.427-3.3,4.856-6.59c.1-.135.078-.2-.05-.3q-1.2-.876-2.4-1.765c-.133-.1-.2-.079-.3.049q-2.414,3.289-4.838,6.57c-.109.147-.081.215.055.314.8.578,1.585,1.164,2.378,1.746C-950.272-820.719-950.219-820.689-950.172-820.659Zm6.04-8.65a.947.947,0,0,0-.4-.695c-.3-.228-.611-.452-.917-.677a1.114,1.114,0,0,0-1.782.373.154.154,0,0,0,.049.242q1.229.9,2.456,1.806c.069.051.137.085.206,0A1.259,1.259,0,0,0-944.132-829.309Zm-9.554,10.588a.825.825,0,0,0,.143-.035q1.292-.654,2.582-1.31c.144-.073.1-.135,0-.207q-1.007-.739-2.012-1.481c-.1-.072-.171-.1-.2.063C-953.339-820.715-953.51-819.739-953.687-818.721Z" transform="translate(954.573 831.759)" fill="#fff" stroke="#fff" stroke-width="0.3"/>
    </g>
  </g>
</svg>
