<svg xmlns="http://www.w3.org/2000/svg" width="16.922" height="16.871" viewBox="0 0 16.922 16.871">
  <g id="Grupo_23204" data-name="Grupo 23204" transform="translate(1035.52 930.42)">
    <path id="Trazado_17418" data-name="Trazado 17418" d="M-1027.056-915.559c.95,0,1.9-.048,2.85.01a3.363,3.363,0,0,0,3.622-3.564c0-.347-.008-.695.008-1.041a.955.955,0,0,1,.87-.941.945.945,0,0,1,1.029.767c.476,3.35-1.24,6.117-4.434,6.691a12.17,12.17,0,0,1-2.122.078q-2.421.011-4.843,0a5.248,5.248,0,0,1-5.349-5,63.091,63.091,0,0,1,.011-7.144,5.29,5.29,0,0,1,4.652-4.648,9.139,9.139,0,0,1,1.851-.032.969.969,0,0,1,.962,1,1.01,1.01,0,0,1-1.046.971c-.422.019-.845,0-1.267.01a3.265,3.265,0,0,0-3.211,3.21q-.026,3.213,0,6.426a3.232,3.232,0,0,0,3.16,3.2c1.085.028,2.172.005,3.258.005Z" transform="translate(0 0)" fill="#258724"/>
    <path id="Trazado_17419" data-name="Trazado 17419" d="M-992.969-904.63a1.147,1.147,0,0,1,.757.427c.8.8,1.61,1.589,2.394,2.4.287.3.452.278.7-.045,1.774-2.306,3.565-4.6,5.347-6.9a1.056,1.056,0,0,1,1.03-.519.976.976,0,0,1,.6,1.6c-.79,1.047-1.6,2.077-2.407,3.113-1.129,1.452-2.255,2.906-3.393,4.351a1.794,1.794,0,0,1-2.8.24c-1.03-.973-2.017-1.992-3.011-3a.913.913,0,0,1-.212-1.082A1,1,0,0,1-992.969-904.63Z" transform="translate(-37.702 -19.229)" fill="#258724"/>
  </g>
</svg>
