<svg xmlns="http://www.w3.org/2000/svg" width="21.612" height="19.529" viewBox="0 0 21.612 19.529">
  <g id="Grupo_22652" data-name="Grupo 22652" transform="translate(-318.991 -253)">
    <path id="Trazado_17291" data-name="Trazado 17291" d="M336.972,253c.16.1.145.214.041.349q-1.826,2.375-3.652,4.75c-.045.059-.136.083-.206.123a.741.741,0,0,1-.113-.234c-.043-.513-.071-1.027-.106-1.541-.008-.116-.023-.231-.038-.38l-.225.107c-1.357.667-2.715,1.331-4.068,2.005a.76.76,0,0,0-.3.275c-.755,1.256-1.5,2.518-2.249,3.778a.868.868,0,0,1-1.286.433q-2.583-1.064-5.165-2.128a.832.832,0,0,1-.608-.889.806.806,0,0,1,1.164-.623c.795.32,1.585.651,2.378.978l2.373.977c.049-.077.1-.146.139-.217.665-1.119,1.333-2.237,1.992-3.36a1.375,1.375,0,0,1,.6-.561q2.154-1.05,4.3-2.113c.07-.034.138-.071.236-.122l-.6-.534c-.286-.253-.571-.509-.861-.758-.116-.1-.14-.2-.033-.316Z" transform="translate(0 0)" fill="#ee2825"/>
    <g id="Trazado_17292" data-name="Trazado 17292" transform="translate(-275.334 -47.331)" fill="none">
      <path d="M612.109,311.609q0-3.758,0-7.516c0-.558.147-.7.709-.7h2.435c.521,0,.683.163.683.688q0,7.551,0,15.1c0,.522-.161.679-.689.68h-2.482c-.5,0-.655-.161-.655-.663Q612.109,315.4,612.109,311.609Z" stroke="none"/>
      <path d="M 614.1552124023438 304.587646484375 C 613.8731689453125 304.587646484375 613.5911254882812 304.5877380371094 613.3091430664062 304.5878601074219 L 613.3090209960938 309.4616394042969 L 613.30908203125 311.609130859375 L 613.3090209960938 313.6321411132812 C 613.3090209960938 315.3075256347656 613.3089599609375 316.9829406738281 613.3091430664062 318.6583862304688 C 613.5094604492188 318.6584777832031 613.7097778320312 318.6585083007812 613.91015625 318.6585083007812 L 614.7365112304688 318.6582946777344 C 614.7369384765625 313.9680480957031 614.7369384765625 309.2781677246094 614.7365112304688 304.5877990722656 C 614.542724609375 304.5877075195312 614.3489990234375 304.587646484375 614.1552124023438 304.587646484375 M 614.1552124023438 303.3876647949219 C 614.5213012695312 303.3876647949219 614.8873291015625 303.3877868652344 615.25341796875 303.3882141113281 C 615.7745361328125 303.3888244628906 615.9364624023438 303.5513305664062 615.9364624023438 304.076171875 C 615.9369506835938 309.1103515625 615.9369506835938 314.1445007324219 615.9364624023438 319.1786499023438 C 615.9364013671875 319.7008666992188 615.7752685546875 319.8579711914062 615.2470703125 319.8581848144531 C 614.41943359375 319.8584594726562 613.5919799804688 319.8587646484375 612.7647094726562 319.8580627441406 C 612.2686157226562 319.8576354980469 612.1093139648438 319.697021484375 612.1092529296875 319.1954345703125 C 612.1088256835938 316.6666259765625 612.1090698242188 314.1378479003906 612.1090698242188 311.609130859375 C 612.1090698242188 309.1037292480469 612.1089477539062 306.5983276367188 612.109130859375 304.0929870605469 C 612.109130859375 303.5350341796875 612.256591796875 303.3883361816406 612.8179931640625 303.3880920410156 C 613.263671875 303.3878784179688 613.7094116210938 303.3876647949219 614.1552124023438 303.3876647949219 Z" stroke="none" fill="#ee2825"/>
    </g>
    <g id="Trazado_17293" data-name="Trazado 17293" transform="translate(-191.326 -114.27)" fill="none">
      <path d="M526.51,380.727q0,2.682,0,5.363c0,.553-.156.707-.711.707q-1.242,0-2.483,0c-.464,0-.64-.175-.64-.634q0-5.445,0-10.89c0-.451.169-.619.625-.621q1.288,0,2.576,0c.458,0,.632.178.632.642Q526.511,378.011,526.51,380.727Z" stroke="none"/>
      <path d="M 524.3839721679688 385.5982055664062 L 525.3098754882812 385.5979919433594 L 525.31005859375 379.2712707519531 C 525.3101806640625 378.13134765625 525.310302734375 376.9914245605469 525.3097534179688 375.8515319824219 C 524.8316040039062 375.850830078125 524.353515625 375.8507995605469 523.87548828125 375.8515319824219 C 523.8748779296875 379.1003112792969 523.8749389648438 382.349365234375 523.8753662109375 385.5980834960938 C 524.044921875 385.5981750488281 524.2144165039062 385.5982055664062 524.3839721679688 385.5982055664062 M 524.3839111328125 386.7981872558594 C 524.0277709960938 386.7981872558594 523.671630859375 386.7980346679688 523.3154907226562 386.7975463867188 C 522.8517456054688 386.7969055175781 522.6755981445312 386.6227111816406 522.6754760742188 386.1632995605469 C 522.6749267578125 382.5332641601562 522.6748657226562 378.9033203125 522.6755981445312 375.2733154296875 C 522.6756591796875 374.8226928710938 522.8448486328125 374.6539611816406 523.3008422851562 374.6527404785156 C 524.1595458984375 374.6503601074219 525.0184936523438 374.6504211425781 525.8773193359375 374.6526794433594 C 526.3355102539062 374.6539001464844 526.5091552734375 374.8304443359375 526.5094604492188 375.2942199707031 C 526.5106201171875 377.1052856445312 526.5099487304688 378.9164428710938 526.5099487304688 380.7274780273438 C 526.5099487304688 382.5151977539062 526.510009765625 384.3028564453125 526.5098876953125 386.090576171875 C 526.5098266601562 386.6431579589844 526.35400390625 386.7977600097656 525.7984008789062 386.7978820800781 C 525.326904296875 386.7979431152344 524.8554077148438 386.7981872558594 524.3839111328125 386.7981872558594 Z" stroke="none" fill="#ee2825"/>
    </g>
    <g id="Trazado_17294" data-name="Trazado 17294" transform="translate(-23.463 -174.803)" fill="none">
      <path d="M347.8,443.224q0,1.732,0,3.465c0,.481-.165.642-.652.642h-2.529c-.476,0-.644-.169-.645-.651q0-3.465,0-6.929c0-.49.17-.655.665-.655h2.505c.491,0,.654.166.655.664Q347.8,441.491,347.8,443.224Z" stroke="none"/>
      <path d="M 345.8363037109375 446.1313781738281 C 346.08935546875 446.1313781738281 346.3424072265625 446.1313171386719 346.595458984375 446.1311645507812 C 346.5958251953125 445.4824523925781 346.595703125 444.8336791992188 346.5955810546875 444.1849365234375 L 346.5954895019531 443.2236328125 L 346.5955505371094 442.2394714355469 C 346.5956115722656 441.5910339355469 346.595703125 440.9425964355469 346.5954895019531 440.2941589355469 C 346.1201782226562 440.2938842773438 345.6448974609375 440.2939147949219 345.1694641113281 440.294189453125 C 345.1686401367188 442.2469482421875 345.1686706542969 444.2056884765625 345.1695251464844 446.1311950683594 C 345.3917846679688 446.1313171386719 345.6140441894531 446.1313781738281 345.8363037109375 446.1313781738281 M 345.8363037109375 447.3313903808594 C 345.4290161132812 447.3313903808594 345.021728515625 447.3311767578125 344.6144104003906 447.3307189941406 C 344.1385192871094 447.330078125 343.9700012207031 447.1617126464844 343.9697875976562 446.6793212890625 C 343.9685668945312 444.3695068359375 343.9685668945312 442.0596923828125 343.9697265625 439.7498779296875 C 343.9699401855469 439.2596435546875 344.1393127441406 439.094970703125 344.6351623535156 439.0945739746094 C 345.4702758789062 439.0938720703125 346.3053588867188 439.0936889648438 347.1404724121094 439.0946350097656 C 347.6316833496094 439.0951843261719 347.794921875 439.2607727050781 347.7952270507812 439.7590026855469 C 347.7959594726562 440.9138793945312 347.7954711914062 442.0687561035156 347.7954711914062 443.2236328125 C 347.7954711914062 444.3786315917969 347.7962341308594 445.5335083007812 347.7950134277344 446.6884155273438 C 347.7945556640625 447.1690673828125 347.6299438476562 447.3302612304688 347.1431274414062 447.3307189941406 C 346.70751953125 447.3311462402344 346.2719116210938 447.3313903808594 345.8363037109375 447.3313903808594 Z" stroke="none" fill="#ee2825"/>
    </g>
    <g id="Trazado_17295" data-name="Trazado 17295" transform="translate(-107.306 -208.175)" fill="none">
      <path d="M437.064,477.675q0,1.205,0,2.41c0,.431-.182.615-.61.616q-1.311,0-2.621,0a.525.525,0,0,1-.6-.6q0-2.434,0-4.868a.528.528,0,0,1,.6-.606q1.322-.007,2.645,0a.519.519,0,0,1,.587.593C437.066,476.037,437.064,476.856,437.064,477.675Z" stroke="none"/>
      <path d="M 435.1123352050781 479.5038757324219 C 435.3628540039062 479.5038757324219 435.6133422851562 479.503662109375 435.8638916015625 479.5032653808594 C 435.8641357421875 479.1270751953125 435.8639831542969 478.7509155273438 435.8638305664062 478.374755859375 L 435.8636474609375 477.6752319335938 L 435.8639526367188 476.9599304199219 C 435.8641967773438 476.5863037109375 435.8644714355469 476.2042846679688 435.8640747070312 475.8222961425781 C 435.3986511230469 475.8208923339844 434.92431640625 475.8208923339844 434.4292297363281 475.8223266601562 C 434.4275817871094 477.0454406738281 434.4275817871094 478.2787170410156 434.4292602539062 479.5032958984375 C 434.6569213867188 479.5036926269531 434.8846435546875 479.5038757324219 435.1123352050781 479.5038757324219 M 435.1123352050781 480.7038879394531 C 434.685546875 480.7038879394531 434.2587890625 480.7032470703125 433.83203125 480.7017822265625 C 433.4205932617188 480.7003784179688 433.2309265136719 480.5126953125 433.2301635742188 480.098388671875 C 433.2272644042969 478.4759521484375 433.2272644042969 476.8533935546875 433.2301635742188 475.2308349609375 C 433.2309265136719 474.8196411132812 433.4220275878906 474.6267700195312 433.8309326171875 474.6246948242188 C 434.7124938964844 474.6202697753906 435.5940856933594 474.6198425292969 436.4757690429688 474.625 C 436.8750305175781 474.6273803710938 437.0614929199219 474.8199462890625 437.0628051757812 475.2180786132812 C 437.0655212402344 476.037109375 437.0636291503906 476.8561401367188 437.0636291503906 477.6752319335938 C 437.0636291503906 478.4786987304688 437.0647888183594 479.2821044921875 437.0631103515625 480.0856323242188 C 437.062255859375 480.5166625976562 436.8813171386719 480.7008056640625 436.4534606933594 480.7019653320312 C 436.0064392089844 480.7031860351562 435.5593566894531 480.7038879394531 435.1123352050781 480.7038879394531 Z" stroke="none" fill="#ee2825"/>
    </g>
  </g>
</svg>
