<svg xmlns="http://www.w3.org/2000/svg" width="12.254" height="14" viewBox="0 0 12.254 14">
  <path id="trash-alt-regular" d="M7.33,11.375h.656a.328.328,0,0,0,.328-.328V5.141a.328.328,0,0,0-.328-.328H7.33A.328.328,0,0,0,7,5.141v5.906A.328.328,0,0,0,7.33,11.375Zm4.486-9.187H9.562L8.632.637A1.313,1.313,0,0,0,7.506,0H4.748A1.313,1.313,0,0,0,3.622.637l-.93,1.55H.438A.438.438,0,0,0,0,2.625v.437A.438.438,0,0,0,.438,3.5H.875v9.187A1.313,1.313,0,0,0,2.188,14h7.877a1.313,1.313,0,0,0,1.313-1.312V3.5h.438a.438.438,0,0,0,.438-.438V2.625A.438.438,0,0,0,11.816,2.187ZM4.7,1.392a.164.164,0,0,1,.141-.08H7.412a.164.164,0,0,1,.141.08l.478.8H4.223Zm5.365,11.3H2.188V3.5h7.877Zm-5.8-1.313h.656a.328.328,0,0,0,.328-.328V5.141a.328.328,0,0,0-.328-.328H4.267a.328.328,0,0,0-.328.328v5.906A.328.328,0,0,0,4.267,11.375Z" transform="translate(0 0)" fill="#ee2825"/>
</svg>
