<svg xmlns="http://www.w3.org/2000/svg" width="15" height="17.368" viewBox="0 0 15 17.368">
  <g id="Grupo_23214" data-name="Grupo 23214" transform="translate(-2064.151 -621.464)">
    <path id="Trazado_15797" data-name="Trazado 15797" d="M2068.661,638.83c-.923,0-1.845.006-2.767,0a1.684,1.684,0,0,1-1.742-1.75,7.366,7.366,0,0,1,4.543-6.908c.344-.164.347-.157.053-.4a4.667,4.667,0,0,1,2.966-8.3,4.664,4.664,0,0,1,.565,9.289c-.557.071-1.128.05-1.679.146a6.239,6.239,0,0,0-5.165,5.279c-.033.224-.03.454-.048.681-.042.528.157.755.694.762s1.1,0,1.653,0h3.881a.605.605,0,0,1,.308,1.142.82.82,0,0,1-.422.062Zm6.372-12.68a3.365,3.365,0,0,0-3.419-3.407,3.407,3.407,0,0,0,.035,6.814A3.369,3.369,0,0,0,2075.033,626.15Z" transform="translate(0 0)" fill="#ee2825"/>
    <path id="Trazado_15798" data-name="Trazado 15798" d="M2186.708,763.23c0-.275-.008-.551,0-.826.008-.229-.084-.324-.317-.321-.526.008-1.053.006-1.58,0-.438,0-.69-.232-.688-.6s.251-.594.694-.6c.491-.005.983-.02,1.472,0,.341.017.438-.116.423-.438-.021-.49-.01-.981,0-1.472.006-.436.236-.686.612-.68a.591.591,0,0,1,.59.667c.007.527.01,1.053,0,1.58,0,.245.085.345.335.34.526-.011,1.053-.007,1.58,0,.417.005.663.227.672.585.009.375-.244.611-.676.617-.5.007-1.006.018-1.508,0-.323-.014-.417.113-.405.419.019.49.008.981,0,1.472,0,.444-.223.7-.595.7s-.6-.249-.608-.685c0-.251,0-.5,0-.754Z" transform="translate(-111.348 -126.993)" fill="#ee2825"/>
  </g>
</svg>
