<svg xmlns="http://www.w3.org/2000/svg" width="21.879" height="19.998" viewBox="0 0 21.879 19.998">
  <g id="Grupo_23371" data-name="Grupo 23371" transform="translate(0 0)">
    <path id="Trazado_17430" data-name="Trazado 17430" d="M428.6,163.94c0-3.16,0-5.429,0-8.589a2.183,2.183,0,0,1,1.737-2.188,2.048,2.048,0,0,1,.406-.03q6.453,0,12.906,0a2.134,2.134,0,0,1,2.14,2.215c0,3.465,0,3.465,0,6.931,0,.37,0,.37.348.422a5.266,5.266,0,0,1-.057,10.374,4.123,4.123,0,0,1-1.387-.007,5.372,5.372,0,0,0-1.122,0q-2.475-.006-4.951,0c-2.6,0-5.192-.026-7.787.012a2.241,2.241,0,0,1-2.242-2.31C428.615,167.636,428.6,167.075,428.6,163.94Zm13.382,7.905.039-.061a1.925,1.925,0,0,1-.222-.177,5.251,5.251,0,0,1-1.457-4.427,5.167,5.167,0,0,1,3.917-4.4c.343-.083.343-.083.343-.449,0-3.374,0-3.282,0-6.656a2.873,2.873,0,0,0-.037-.517.906.906,0,0,0-.656-.746,1.438,1.438,0,0,0-.451-.054H430.966c-.072,0-.145,0-.216,0a.951.951,0,0,0-.9.7,1.758,1.758,0,0,0-.031.467c0,6.2,0,8.941,0,15.144,0,.1,0,.2.006.3a.885.885,0,0,0,.46.737,1.349,1.349,0,0,0,.7.142h11Zm3.421-7.943a3.991,3.991,0,1,0,3.866,3.909A3.906,3.906,0,0,0,445.405,163.9Z" transform="translate(-428.598 -153.131)" fill="#ee2825"/>
    <path id="Trazado_17431" data-name="Trazado 17431" d="M501.578,248.149q1.684,0,3.369,0a.679.679,0,0,1,.643.365.631.631,0,0,1-.028.666.578.578,0,0,1-.4.292,2.877,2.877,0,0,1-.481.044q-3.1,0-6.2,0a2.506,2.506,0,0,1-.428-.034.668.668,0,0,1,.1-1.33c.575-.009,1.15,0,1.725,0Z" transform="translate(-494.373 -243.471)" fill="#ee2825"/>
    <path id="Trazado_17432" data-name="Trazado 17432" d="M501.556,436.834c-1.123,0-2.246,0-3.369,0a.662.662,0,0,1-.725-.664.648.648,0,0,1,.524-.659,2.309,2.309,0,0,1,.455-.041q3.126,0,6.253,0a2.155,2.155,0,0,1,.322.02.674.674,0,1,1-.09,1.345c-1.042,0-2.084,0-3.126,0Z" transform="translate(-494.355 -421.572)" fill="#ee2825"/>
    <path id="Trazado_17433" data-name="Trazado 17433" d="M501.538,340.131c1.132,0,2.263,0,3.395,0a.665.665,0,0,1,.625,1,.687.687,0,0,1-.661.332c-1.069,0-2.138,0-3.206,0-1.177,0-2.353,0-3.53,0a.667.667,0,1,1,.009-1.332C499.293,340.129,500.415,340.131,501.538,340.131Z" transform="translate(-494.355 -330.926)" fill="#ee2825"/>
    <path id="Trazado_17434" data-name="Trazado 17434" d="M676.52,247.054a.816.816,0,0,1-.814-.8.829.829,0,0,1,.816-.835.854.854,0,0,1,.821.81A.833.833,0,0,1,676.52,247.054Z" transform="translate(-663.932 -240.881)" fill="#ee2825"/>
    <path id="Trazado_17435" data-name="Trazado 17435" d="M676.541,338.968a.819.819,0,0,1-.822-.824.828.828,0,0,1,.8-.817.82.82,0,1,1,.018,1.641Z" transform="translate(-663.943 -328.275)" fill="#ee2825"/>
    <path id="Trazado_17436" data-name="Trazado 17436" d="M737.362,401.9c0,.4-.006.808,0,1.212a.679.679,0,0,1-.358.646c-.528.307-1.055.615-1.589.91a.676.676,0,0,1-.982-.208.686.686,0,0,1,.328-.974c.324-.192.647-.389.981-.563a.468.468,0,0,0,.289-.487c-.017-.583-.009-1.167,0-1.751a.668.668,0,1,1,1.333,0C737.365,401.088,737.362,401.493,737.362,401.9Z" transform="translate(-719.895 -388.059)" fill="#ee2825"/>
  </g>
</svg>
